<svg height="512pt" viewBox="0 0 512 511" width="512pt" xmlns="http://www.w3.org/2000/svg"><path d="m225.109375 117.207031-13.484375-50.515625c-4.570312-17.222656 1.238281-35.53125 14.898438-46.972656 13.660156-11.441406 32.707031-13.941406 48.859374-6.417969 16.152344 7.523438 26.492188 23.710938 26.527344 41.53125-.011718 4-.527344 7.984375-1.535156 11.859375l-13.484375 50.515625" fill="#4caf50"/><path d="m340.308594 160.183594c14.605468-12.414063 33.0625-19.378906 52.226562-19.703125 61.265625 0 110.929688 74.871093 110.929688 167.191406 0 92.324219-49.664063 167.195313-110.929688 167.195313-19.164062-.328126-37.621094-7.292969-52.226562-19.703126h-168.617188c-14.605468 12.410157-33.0625 19.375-52.226562 19.703126-61.265625 0-110.929688-74.871094-110.929688-167.195313 0-92.320313 49.664063-167.191406 110.929688-167.191406 19.164062.324219 37.621094 7.289062 52.226562 19.703125zm0 0" fill="#f57c00"/><g fill="#ffb301"><path d="m384 307.671875c0-108.394531-57.308594-196.265625-128-196.265625s-128 87.871094-128 196.265625 57.308594 196.265625 128 196.265625 128-87.871094 128-196.265625zm0 0"/><path d="m101.335938 172.734375c-15.746094-7.511719-40.84375 12.265625-56.058594 44.167969-15.21875 31.902344-14.792969 63.851562.953125 71.359375 15.742187 7.511719 40.839843-12.265625 56.054687-44.167969 15.21875-31.902344 14.792969-63.851562-.949218-71.359375zm0 0"/><path d="m466.726562 216.898438c-15.214843-31.902344-40.3125-51.679688-56.054687-44.167969-15.746094 7.507812-16.171875 39.457031-.953125 71.359375 15.214844 31.902344 40.3125 51.679687 56.058594 44.167968 15.742187-7.507812 16.167968-39.457031.949218-71.359374zm0 0"/></g><path d="m145.066406 239.59375v25.414062c-.113281 9.308594 7.339844 16.949219 16.648438 17.066407h68.898437c3.242188-.058594 6.171875-1.945313 7.5625-4.875 1.390625-2.929688 1-6.394531-1.007812-8.941407-10.71875-14.363281-34.535157-35.039062-83.628907-37.199218-2.265624-.027344-4.445312.867187-6.042968 2.472656-1.597656 1.609375-2.472656 3.796875-2.429688 6.0625zm0 0" fill="#37474f"/><path d="m366.933594 239.59375v25.414062c.113281 9.308594-7.339844 16.949219-16.648438 17.066407h-68.898437c-3.242188-.058594-6.171875-1.945313-7.5625-4.875-1.390625-2.929688-1-6.394531 1.007812-8.941407 10.71875-14.363281 34.535157-35.039062 83.628907-37.199218 2.265624-.027344 4.445312.867187 6.042968 2.472656 1.597656 1.609375 2.472656 3.796875 2.429688 6.0625zm0 0" fill="#37474f"/><path d="m256 410.074219c-15.871094.046875-31.671875-2.140625-46.933594-6.496094-14.183594-3.988281-27.640625-10.203125-39.875-18.414063-11.738281-7.796874-21.710937-17.972656-29.269531-29.867187-7.453125-12.015625-3.75-27.800781 8.269531-35.25 12.015625-7.453125 27.796875-3.75 35.25 8.269531 3.828125 5.796875 8.800782 10.746094 14.617188 14.546875 7.753906 5.136719 16.265625 9.023438 25.222656 11.519531 21.433594 5.957032 44.082031 5.957032 65.511719 0 8.960937-2.496093 17.476562-6.382812 25.234375-11.519531 5.816406-3.800781 10.789062-8.75 14.617187-14.546875 7.449219-12.019531 23.234375-15.722656 35.25-8.269531 12.019531 7.449219 15.722657 23.234375 8.269531 35.25-7.558593 11.894531-17.53125 22.070313-29.269531 29.867187-12.257812 8.21875-25.746093 14.4375-39.960937 18.414063-15.261719 4.355469-31.0625 6.542969-46.933594 6.496094zm0 0" fill="#37474f"/><path d="m119.464844 483.398438c18.15625-.21875 35.816406-5.953126 50.636718-16.441407 2.671876 3.242188 5.371094 6.457031 8.195313 9.386719 6.984375 7.304688 14.78125 13.789062 23.234375 19.328125 8.105469 5.304687 16.890625 9.484375 26.121094 12.421875 18.449218 5.839844 38.246094 5.839844 56.695312 0 9.230469-2.9375 18.015625-7.117188 26.121094-12.421875 8.453125-5.539063 16.25-12.023437 23.234375-19.328125 2.824219-2.929688 5.523437-6.144531 8.195313-9.386719 14.820312 10.488281 32.480468 16.222657 50.636718 16.441407 65.875 0 119.464844-78.828126 119.464844-175.726563 0-96.894531-53.589844-175.726563-119.464844-175.726563-18.15625.21875-35.816406 5.957032-50.636718 16.445313-2.671876-3.242187-5.371094-6.460937-8.195313-9.386719-6.984375-7.304687-14.78125-13.789062-23.234375-19.328125-4.292969-2.792969-8.777344-5.28125-13.414062-7.449219l11.585937-43.4375c1.1875-4.558593 1.792969-9.246093 1.800781-13.957031-.042968-21.128906-12.304687-40.324219-31.457031-49.242187-19.152344-8.917969-41.734375-5.953125-57.933594 7.609375s-23.089843 35.273437-17.675781 55.695312l11.570312 43.363281c-4.636718 2.171876-9.121093 4.660157-13.414062 7.453126-8.453125 5.539062-16.25 12.023437-23.234375 19.324218-2.824219 2.929688-5.523437 6.144532-8.195313 9.386719-14.816406-10.5-32.476562-16.246094-50.636718-16.476563-65.875 0-119.464844 78.832032-119.464844 175.726563 0 96.898437 53.589844 175.726563 119.464844 175.726563zm106.882812-451.234376c9.738282-12.691406 26.472656-17.777343 41.625-12.652343 15.152344 5.121093 25.367188 19.320312 25.402344 35.320312-.011719 3.25-.429688 6.492188-1.246094 9.640625l-11.167968 41.8125c-16.339844-4.488281-33.582032-4.488281-49.921876 0l-11.167968-41.8125c-3.015625-11.1875-.617188-23.144531 6.476562-32.308594zm-106.882812 116.847657c14.488281.160156 28.582031 4.71875 40.414062 13.074219-.492187.742187-1.046875 1.390624-1.535156 2.140624-6.238281 9.632813-11.691406 19.757813-16.296875 30.269532-1.902344 4.3125.054687 9.351562 4.367187 11.253906 4.316407 1.902344 9.355469-.054688 11.257813-4.367188 4.230469-9.667968 9.234375-18.976562 14.964844-27.835937 5.246093-8.113281 11.246093-15.710937 17.921875-22.691406 6.085937-6.371094 12.875-12.03125 20.242187-16.871094 6.804688-4.457031 14.1875-7.976563 21.9375-10.453125 15.128907-4.769531 31.359375-4.769531 46.488281 0 7.773438 2.472656 15.175782 5.988281 22 10.453125 7.363282 4.839844 14.15625 10.5 20.242188 16.871094 6.675781 6.984375 12.675781 14.582031 17.917969 22.699219 5.734375 8.855468 10.738281 18.160156 14.96875 27.828124 1.230469 2.789063 3.855469 4.710938 6.886719 5.042969 3.035156.328125 6.011718-.984375 7.8125-3.445312 1.804687-2.457031 2.15625-5.695313.925781-8.484375-4.609375-10.511719-10.058594-20.636719-16.300781-30.269532-.484376-.742187-1.039063-1.398437-1.535157-2.140624 11.828125-8.351563 25.910157-12.910157 40.390625-13.074219 56.464844 0 102.398438 71.175781 102.398438 158.660156s-45.933594 158.660156-102.398438 158.660156c-14.488281-.15625-28.582031-4.714843-40.414062-13.070312.492187-.746094 1.046875-1.394531 1.535156-2.144531 6.238281-9.632813 11.691406-19.753907 16.296875-30.265626 1.902344-4.316406-.054687-9.355468-4.367187-11.257812-4.316407-1.902344-9.355469.054688-11.257813 4.371094-4.230469 9.667968-9.234375 18.976562-14.964844 27.835937-5.246093 8.109375-11.246093 15.707031-17.921875 22.6875-6.078125 6.371094-12.859375 12.03125-20.214844 16.871094-6.808593 4.460937-14.1875 7.976563-21.9375 10.453125-15.132812 4.769531-31.363281 4.769531-46.492187 0-7.75-2.476562-15.132813-5.992188-21.9375-10.453125-7.363281-4.835937-14.15625-10.496094-20.242187-16.871094-6.675782-6.980469-12.675782-14.582031-17.917969-22.695312-5.734375-8.859375-10.742188-18.164063-14.96875-27.828125-1.230469-2.792969-3.855469-4.714844-6.886719-5.042969-3.035156-.332031-6.011719.980469-7.8125 3.441406-1.804688 2.460938-2.15625 5.695313-.925781 8.488281 4.609375 10.511719 10.058593 20.632813 16.296875 30.265626.488281.742187 1.042968 1.398437 1.539062 2.144531-11.851562 8.367187-25.96875 12.925781-40.476562 13.070312-56.464844 0-102.398438-71.175781-102.398438-158.660156s45.933594-158.660156 102.398438-158.660156zm0 0"/><path d="m161.714844 290.605469h68.890625c6.367187.007812 12.191406-3.601563 15.019531-9.308594 2.957031-5.863281 2.328125-12.898437-1.621094-18.140625-12.902344-17.289062-39-38.402344-90.054687-40.628906-4.5-.214844-8.886719 1.449218-12.109375 4.597656-3.386719 3.265625-5.300782 7.765625-5.304688 12.46875v25.414062c-.101562 14.015626 11.164063 25.46875 25.179688 25.597657zm-8.113282-51.011719c44.097657 2.046875 66.0625 19.480469 77.003907 33.945312h-68.890625c-4.59375-.125-8.21875-3.941406-8.113282-8.53125zm0 0"/><path d="m281.394531 290.605469h68.890625c14.015625-.128907 25.28125-11.582031 25.179688-25.597657v-25.414062c-.003906-4.703125-1.917969-9.203125-5.304688-12.46875-3.230468-3.136719-7.613281-4.804688-12.109375-4.597656-51.054687 2.253906-77.152343 23.339844-90.054687 40.628906-3.949219 5.242188-4.578125 12.277344-1.621094 18.140625 2.828125 5.707031 8.652344 9.316406 15.019531 9.308594zm76.960938-51.199219c.035156.039062.050781.09375.042969.144531v25.457031c.105468 4.589844-3.519532 8.40625-8.113282 8.53125l-68.617187-.179687c10.699219-14.328125 32.757812-31.820313 76.730469-33.910156zm0 0"/><path d="m164.359375 392.210938c12.980469 8.722656 27.257813 15.328124 42.308594 19.570312 32.253906 9.101562 66.398437 9.101562 98.65625 0 15.050781-4.242188 29.335937-10.847656 42.316406-19.570312 12.726563-8.464844 23.53125-19.515626 31.71875-32.425782 9.933594-16.023437 4.996094-37.066406-11.027344-47-16.023437-9.9375-37.066406-5-47 11.023438-3.203125 4.773437-7.347656 8.835937-12.179687 11.949218-7.003906 4.628907-14.691406 8.132813-22.78125 10.382813-19.890625 5.496094-40.894532 5.496094-60.785156 0-8.078126-2.222656-15.757813-5.703125-22.757813-10.308594-4.832031-3.109375-8.972656-7.175781-12.175781-11.945312-9.933594-16.023438-30.980469-20.960938-47.003906-11.027344-16.023438 9.9375-20.957032 30.980469-11.023438 47.003906 8.199219 12.882813 19.011719 23.90625 31.734375 32.347657zm-19.292969-54.304688c1.820313-7.679688 8.65625-13.117188 16.546875-13.167969 1.3125.003907 2.621094.15625 3.898438.453125 4.421875 1.03125 8.25 3.777344 10.640625 7.636719 4.457031 6.800781 10.265625 12.613281 17.066406 17.066406 8.503906 5.640625 17.835938 9.917969 27.65625 12.671875 22.972656 6.445313 47.277344 6.445313 70.25 0 9.828125-2.75 19.167969-7.027344 27.671875-12.671875 6.800781-4.453125 12.609375-10.265625 17.066406-17.066406 4.96875-8.011719 15.488281-10.480469 23.5-5.511719s10.480469 15.488282 5.511719 23.5c-6.933594 10.882813-16.078125 20.183594-26.835938 27.308594-11.480468 7.707031-24.117187 13.539062-37.433593 17.269531-29.167969 8.179688-60.019531 8.179688-89.183594 0-13.3125-3.734375-25.945313-9.5625-37.425781-17.269531-10.761719-7.125-19.902344-16.425781-26.839844-27.308594-2.390625-3.851562-3.144531-8.5-2.089844-12.910156zm0 0"/></svg>